<svg width="14" height="14" viewBox="0 0 14 14" fill="none" xmlns="http://www.w3.org/2000/svg">
<path d="M13.0531 0H0.924315C0.405797 0 0 0.405797 0 0.924315C0 1.44283 0.405797 1.84863 0.924315 1.84863H13.0757C13.5942 1.84863 14 1.44283 14 0.924315C13.9775 0.405797 13.5717 0 13.0531 0V0Z" fill="black"/>
<path d="M13.0531 12.1514H0.924315C0.405797 12.1514 0 12.5572 0 13.0757C0 13.5942 0.405797 14 0.924315 14H13.0757C13.5942 14 14 13.5942 14 13.0757C13.9775 12.5572 13.5717 12.1514 13.0531 12.1514V12.1514Z" fill="black"/>
<path d="M13.0531 6.06441H0.924315C0.405797 6.06441 0 6.47021 0 6.98873C0 7.50725 0.405797 7.91304 0.924315 7.91304H13.0757C13.5942 7.91304 14 7.50725 14 6.98873C13.9775 6.47021 13.5717 6.06441 13.0531 6.06441V6.06441Z" fill="black"/>
</svg>
