<svg width="174" height="28" viewBox="0 0 174 28" fill="none" xmlns="http://www.w3.org/2000/svg">
<rect width="58" height="16" fill="#9C9C9C" fill-opacity="0.43"/>
<path d="M17.88 20H11.38L10.14 23H6.82L13.06 9H16.26L22.52 23H19.12L17.88 20ZM16.86 17.54L14.64 12.18L12.42 17.54H16.86ZM36.6708 9L30.6108 23H27.4108L21.3708 9H24.8708L29.1308 19L33.4508 9H36.6708ZM46.7597 23L44.0597 19.1H43.8997H41.0797V23H37.8397V9H43.8997C45.1397 9 46.213 9.20667 47.1197 9.62C48.0397 10.0333 48.7464 10.62 49.2397 11.38C49.733 12.14 49.9797 13.04 49.9797 14.08C49.9797 15.12 49.7264 16.02 49.2197 16.78C48.7264 17.5267 48.0197 18.1 47.0997 18.5L50.2397 23H46.7597ZM46.6997 14.08C46.6997 13.2933 46.4464 12.6933 45.9397 12.28C45.433 11.8533 44.693 11.64 43.7197 11.64H41.0797V16.52H43.7197C44.693 16.52 45.433 16.3067 45.9397 15.88C46.4464 15.4533 46.6997 14.8533 46.6997 14.08ZM59.3267 23.24C57.8734 23.24 56.5601 22.9267 55.3867 22.3C54.2267 21.6733 53.3134 20.8133 52.6467 19.72C51.9934 18.6133 51.6667 17.3733 51.6667 16C51.6667 14.6267 51.9934 13.3933 52.6467 12.3C53.3134 11.1933 54.2267 10.3267 55.3867 9.7C56.5601 9.07333 57.8734 8.76 59.3267 8.76C60.7801 8.76 62.0867 9.07333 63.2467 9.7C64.4067 10.3267 65.3201 11.1933 65.9867 12.3C66.6534 13.3933 66.9867 14.6267 66.9867 16C66.9867 17.3733 66.6534 18.6133 65.9867 19.72C65.3201 20.8133 64.4067 21.6733 63.2467 22.3C62.0867 22.9267 60.7801 23.24 59.3267 23.24ZM59.3267 20.48C60.1534 20.48 60.9001 20.2933 61.5667 19.92C62.2334 19.5333 62.7534 19 63.1267 18.32C63.5134 17.64 63.7067 16.8667 63.7067 16C63.7067 15.1333 63.5134 14.36 63.1267 13.68C62.7534 13 62.2334 12.4733 61.5667 12.1C60.9001 11.7133 60.1534 11.52 59.3267 11.52C58.5001 11.52 57.7534 11.7133 57.0867 12.1C56.4201 12.4733 55.8934 13 55.5067 13.68C55.1334 14.36 54.9467 15.1333 54.9467 16C54.9467 16.8667 55.1334 17.64 55.5067 18.32C55.8934 19 56.4201 19.5333 57.0867 19.92C57.7534 20.2933 58.5001 20.48 59.3267 20.48ZM78.3417 23L75.6417 19.1H75.4817H72.6617V23H69.4217V9H75.4817C76.7217 9 77.7951 9.20667 78.7017 9.62C79.6217 10.0333 80.3284 10.62 80.8217 11.38C81.3151 12.14 81.5617 13.04 81.5617 14.08C81.5617 15.12 81.3084 16.02 80.8017 16.78C80.3084 17.5267 79.6017 18.1 78.6817 18.5L81.8217 23H78.3417ZM78.2817 14.08C78.2817 13.2933 78.0284 12.6933 77.5217 12.28C77.0151 11.8533 76.2751 11.64 75.3017 11.64H72.6617V16.52H75.3017C76.2751 16.52 77.0151 16.3067 77.5217 15.88C78.0284 15.4533 78.2817 14.8533 78.2817 14.08ZM93.3488 20H86.8488L85.6088 23H82.2887L88.5288 9H91.7288L97.9888 23H94.5888L93.3488 20ZM92.3288 17.54L90.1088 12.18L87.8888 17.54H92.3288ZM111.805 23.24C110.379 23.24 109.085 22.9333 107.925 22.32C106.779 21.6933 105.872 20.8333 105.205 19.74C104.552 18.6333 104.225 17.3867 104.225 16C104.225 14.6133 104.552 13.3733 105.205 12.28C105.872 11.1733 106.779 10.3133 107.925 9.7C109.085 9.07333 110.385 8.76 111.825 8.76C113.039 8.76 114.132 8.97333 115.105 9.4C116.092 9.82667 116.919 10.44 117.585 11.24L115.505 13.16C114.559 12.0667 113.385 11.52 111.985 11.52C111.119 11.52 110.345 11.7133 109.665 12.1C108.985 12.4733 108.452 13 108.065 13.68C107.692 14.36 107.505 15.1333 107.505 16C107.505 16.8667 107.692 17.64 108.065 18.32C108.452 19 108.985 19.5333 109.665 19.92C110.345 20.2933 111.119 20.48 111.985 20.48C113.385 20.48 114.559 19.9267 115.505 18.82L117.585 20.74C116.919 21.5533 116.092 22.1733 115.105 22.6C114.119 23.0267 113.019 23.24 111.805 23.24ZM128.693 23L125.993 19.1H125.833H123.013V23H119.773V9H125.833C127.073 9 128.147 9.20667 129.053 9.62C129.973 10.0333 130.68 10.62 131.173 11.38C131.667 12.14 131.913 13.04 131.913 14.08C131.913 15.12 131.66 16.02 131.153 16.78C130.66 17.5267 129.953 18.1 129.033 18.5L132.173 23H128.693ZM128.633 14.08C128.633 13.2933 128.38 12.6933 127.873 12.28C127.367 11.8533 126.627 11.64 125.653 11.64H123.013V16.52H125.653C126.627 16.52 127.367 16.3067 127.873 15.88C128.38 15.4533 128.633 14.8533 128.633 14.08ZM143.7 20H137.2L135.96 23H132.64L138.88 9H142.08L148.34 23H144.94L143.7 20ZM142.68 17.54L140.46 12.18L138.24 17.54H142.68ZM153.033 11.6V15.3H159.513V17.9H153.033V23H149.793V9H160.373V11.6H153.033ZM165.564 11.64H161.084V9H173.284V11.64H168.804V23H165.564V11.64Z" fill="white"/>
</svg>
